<?xml version="1.0" encoding="UTF-8"?>
<svg width="36px" height="42px" viewBox="0 0 36 42" version="1.1" xmlns="http://www.w3.org/2000/svg" xmlns:xlink="http://www.w3.org/1999/xlink">
    <!-- Generator: Sketch 48.2 (47327) - http://www.bohemiancoding.com/sketch -->
    <title>picto--sun__yellow</title>
    <desc>Created with Sketch.</desc>
    <defs>
        <path d="M18,2 C17.4477153,2 17,1.55228475 17,1 C17,0.44771525 17.4477153,8.8817842e-16 18,8.8817842e-16 C18.5522847,8.8817842e-16 19,0.44771525 19,1 C19,1.55228475 18.5522847,2 18,2 Z M31.8564065,10 C31.5802641,9.52170738 31.7441392,8.91011697 32.2224319,8.6339746 C32.7007245,8.35783222 33.3123149,8.52170738 33.5884573,9 C33.8645996,9.47829262 33.7007245,10.089883 33.2224319,10.3660254 C32.7441392,10.6421678 32.1325488,10.4782926 31.8564065,10 Z M34,18 C34,17.4477153 34.4477153,17 35,17 C35.5522847,17 36,17.4477153 36,18 C36,18.5522847 35.5522847,19 35,19 C34.4477153,19 34,18.5522847 34,18 Z M31.8564065,26 C32.1325488,25.5217074 32.7441392,25.3578322 33.2224319,25.6339746 C33.7007245,25.910117 33.8645996,26.5217074 33.5884573,27 C33.3123149,27.4782926 32.7007245,27.6421678 32.2224319,27.3660254 C31.7441392,27.089883 31.5802641,26.4782926 31.8564065,26 Z M26,31.8564065 C26.4782926,31.5802641 27.089883,31.7441392 27.3660254,32.2224319 C27.6421678,32.7007245 27.4782926,33.3123149 27,33.5884573 C26.5217074,33.8645996 25.910117,33.7007245 25.6339746,33.2224319 C25.3578322,32.7441392 25.5217074,32.1325488 26,31.8564065 Z M18,34 C18.5522847,34 19,34.4477153 19,35 C19,35.5522847 18.5522847,36 18,36 C17.4477153,36 17,35.5522847 17,35 C17,34.4477153 17.4477153,34 18,34 Z M10,31.8564065 C10.4782926,32.1325488 10.6421678,32.7441392 10.3660254,33.2224319 C10.089883,33.7007245 9.47829262,33.8645996 9,33.5884573 C8.52170738,33.3123149 8.35783222,32.7007245 8.6339746,32.2224319 C8.91011697,31.7441392 9.52170738,31.5802641 10,31.8564065 Z M4.14359354,26 C4.41973591,26.4782926 4.25586076,27.089883 3.77756814,27.3660254 C3.29927551,27.6421678 2.68768511,27.4782926 2.41154273,27 C2.13540036,26.5217074 2.29927551,25.910117 2.77756814,25.6339746 C3.25586076,25.3578322 3.86745116,25.5217074 4.14359354,26 Z M2,18 C2,18.5522847 1.55228475,19 1,19 C0.44771525,19 1.39800648e-16,18.5522847 3.83475851e-17,18 C-6.31054776e-17,17.4477153 0.44771525,17 1,17 C1.55228475,17 2,17.4477153 2,18 Z M4.14359354,10 C3.86745116,10.4782926 3.25586076,10.6421678 2.77756814,10.3660254 C2.29927551,10.089883 2.13540036,9.47829262 2.41154273,9 C2.68768511,8.52170738 3.29927551,8.35783222 3.77756814,8.6339746 C4.25586076,8.91011697 4.41973591,9.52170738 4.14359354,10 Z M10,4.14359354 C9.52170738,4.41973591 8.91011697,4.25586076 8.6339746,3.77756814 C8.35783222,3.29927551 8.52170738,2.68768511 9,2.41154273 C9.47829262,2.13540036 10.089883,2.29927551 10.3660254,2.77756814 C10.6421678,3.25586076 10.4782926,3.86745116 10,4.14359354 Z M32.9994992,-0.000500842096 C31.3429215,-0.000500842096 30,-1.34342236 30,-3 C30,-4.65657764 31.3429215,-5.99949916 32.9994992,-5.99949916 C34.6560768,-5.99949916 35.9989983,-4.65657764 35.9989983,-3 C35.9989983,-1.34342236 34.6560768,-0.000500842096 32.9994992,-0.000500842096 Z" id="path-1"></path>
    </defs>
    <g id="landing-d-home" stroke="none" stroke-width="1" fill="none" fill-rule="evenodd" transform="translate(-274.000000, -3889.000000)">
        <g id="icon/picto/verified" transform="translate(274.000000, 3895.000000)">
            <mask id="mask-2" fill="white">
                <use xlink:href="#path-1"></use>
            </mask>
            <use id="Path" fill="#000000" fill-rule="evenodd" xlink:href="#path-1"></use>
            <g id="color/plain/yellow" mask="url(#mask-2)" fill="#F2D548" fill-rule="evenodd">
                <g transform="translate(0.000000, -6.000000)" id="Rectangle-6">
                    <rect x="0" y="0" width="42" height="42"></rect>
                </g>
            </g>
        </g>
    </g>
</svg>