<?xml version="1.0" encoding="UTF-8"?>
<svg width="36px" height="36px" viewBox="0 0 36 36" version="1.1" xmlns="http://www.w3.org/2000/svg" xmlns:xlink="http://www.w3.org/1999/xlink">
    <!-- Generator: Sketch 48.2 (47327) - http://www.bohemiancoding.com/sketch -->
    <title>icon/resilience</title>
    <desc>Created with Sketch.</desc>
    <defs>
        <path d="M18,11 C17.4477153,11 17,10.5522847 17,10 C17,9.44771525 17.4477153,9 18,9 C18.5522847,9 19,9.44771525 19,10 C19,10.5522847 18.5522847,11 18,11 Z M25.0710678,13.9289322 C24.6805435,13.5384079 24.6805435,12.9052429 25.0710678,12.5147186 C25.4615921,12.1241943 26.0947571,12.1241943 26.4852814,12.5147186 C26.8758057,12.9052429 26.8758057,13.5384079 26.4852814,13.9289322 C26.0947571,14.3194565 25.4615921,14.3194565 25.0710678,13.9289322 Z M28,21 C28,20.4477153 28.4477153,20 29,20 C29.5522847,20 30,20.4477153 30,21 C30,21.5522847 29.5522847,22 29,22 C28.4477153,22 28,21.5522847 28,21 Z M8,21 C8,21.5522847 7.55228475,22 7,22 C6.44771525,22 6,21.5522847 6,21 C6,20.4477153 6.44771525,20 7,20 C7.55228475,20 8,20.4477153 8,21 Z M10.9289322,13.9289322 C10.5384079,14.3194565 9.90524292,14.3194565 9.51471863,13.9289322 C9.12419433,13.5384079 9.12419433,12.9052429 9.51471863,12.5147186 C9.90524292,12.1241943 10.5384079,12.1241943 10.9289322,12.5147186 C11.3194565,12.9052429 11.3194565,13.5384079 10.9289322,13.9289322 Z M12,22 C12,18.6862915 14.6862915,16 18,16 C21.3137085,16 24,18.6862915 24,22 M21.3177951,26 L36,26 L36,28 L0,28 L0,26 L14.6822049,26 M18,5 C17.4477153,5 17,4.55228475 17,4 C17,3.44771525 17.4477153,3 18,3 C18.5522847,3 19,3.44771525 19,4 C19,4.55228475 18.5522847,5 18,5 Z M26,7.14359354 C25.5217074,6.86745116 25.3578322,6.25586076 25.6339746,5.77756814 C25.910117,5.29927551 26.5217074,5.13540036 27,5.41154273 C27.4782926,5.68768511 27.6421678,6.29927551 27.3660254,6.77756814 C27.089883,7.25586076 26.4782926,7.41973591 26,7.14359354 Z M31.8564065,13 C31.5802641,12.5217074 31.7441392,11.910117 32.2224319,11.6339746 C32.7007245,11.3578322 33.3123149,11.5217074 33.5884573,12 C33.8645996,12.4782926 33.7007245,13.089883 33.2224319,13.3660254 C32.7441392,13.6421678 32.1325488,13.4782926 31.8564065,13 Z M34,21 C34,20.4477153 34.4477153,20 35,20 C35.5522847,20 36,20.4477153 36,21 C36,21.5522847 35.5522847,22 35,22 C34.4477153,22 34,21.5522847 34,21 Z M2,21 C2,21.5522847 1.55228475,22 1,22 C0.44771525,22 1.01453063e-16,21.5522847 0,21 C-1.01453063e-16,20.4477153 0.44771525,20 1,20 C1.55228475,20 2,20.4477153 2,21 Z M4.14359354,13 C3.86745116,13.4782926 3.25586076,13.6421678 2.77756814,13.3660254 C2.29927551,13.089883 2.13540036,12.4782926 2.41154273,12 C2.68768511,11.5217074 3.29927551,11.3578322 3.77756814,11.6339746 C4.25586076,11.910117 4.41973591,12.5217074 4.14359354,13 Z M10,7.14359354 C9.52170738,7.41973591 8.91011697,7.25586076 8.6339746,6.77756814 C8.35783222,6.29927551 8.52170738,5.68768511 9,5.41154273 C9.47829262,5.13540036 10.089883,5.29927551 10.3660254,5.77756814 C10.6421678,6.25586076 10.4782926,6.86745116 10,7.14359354 Z" id="path-1"></path>
    </defs>
    <g stroke="none" stroke-width="1" fill="none" fill-rule="evenodd">
        <g>
            <mask id="mask-2" fill="white">
                <use xlink:href="#path-1"></use>
            </mask>
            <use fill="#2E3448" xlink:href="#path-1"></use>
        </g>
    </g>
</svg>