<?xml version="1.0" standalone="no"?>
<!DOCTYPE svg PUBLIC "-//W3C//DTD SVG 20010904//EN"
 "http://www.w3.org/TR/2001/REC-SVG-20010904/DTD/svg10.dtd">
<svg version="1.0" xmlns="http://www.w3.org/2000/svg"
 width="270.000000pt" height="270.000000pt" viewBox="0 0 270.000000 270.000000"
 preserveAspectRatio="xMidYMid meet">
<metadata>
Created by potrace 1.11, written by Peter Selinger 2001-2013
</metadata>
<g transform="translate(0.000000,270.000000) scale(0.100000,-0.100000)"
fill="#000000" stroke="none">
<path d="M1181 2465 c-28 -24 -30 -24 -40 -8 -9 16 -12 16 -21 3 -13 -19 -6
-245 9 -313 15 -62 52 -104 101 -112 47 -8 57 -18 64 -70 37 -270 38 -448 2
-606 -14 -63 -26 -132 -27 -154 -2 -34 -26 -107 -59 -180 -14 -31 -100 -282
-100 -293 0 -5 -18 -37 -40 -71 -50 -76 -94 -159 -97 -183 -2 -13 -87 -153
-130 -214 -26 -36 -43 -78 -34 -87 20 -20 46 2 102 83 32 47 62 90 66 95 4 6
21 28 38 50 36 50 34 47 125 119 41 33 80 65 85 71 34 36 78 63 93 59 12 -4
13 -3 4 3 -13 10 12 33 123 115 27 20 55 41 60 45 54 44 118 82 128 77 7 -4 9
-3 4 1 -10 11 62 77 76 68 6 -3 7 -1 3 5 -6 10 135 102 157 102 21 0 109 70
182 144 89 90 146 141 170 149 24 10 18 28 -7 23 -13 -3 -50 -10 -83 -17 -33
-6 -76 -18 -95 -26 l-35 -14 35 30 35 30 -67 -24 c-38 -14 -68 -22 -68 -19 0
3 -19 -8 -42 -24 -24 -16 -61 -38 -83 -49 -120 -60 -225 -120 -262 -149 -23
-19 -44 -34 -48 -34 -4 0 -21 -11 -37 -26 -17 -14 -37 -23 -44 -20 -8 3 -11 0
-7 -10 3 -8 -1 -14 -11 -14 -9 0 -16 -4 -16 -10 0 -5 -5 -10 -11 -10 -8 0 -8
5 1 15 7 8 9 15 5 15 -4 0 -3 6 2 13 5 6 10 26 12 42 2 17 6 31 10 33 4 1 6
15 5 31 -1 20 10 40 42 76 24 26 44 50 44 52 0 11 65 78 73 75 5 -1 6 2 2 8
-8 14 26 70 38 63 6 -3 7 -1 3 5 -3 5 7 40 24 75 16 36 30 70 30 77 0 6 3 9 8
7 4 -3 7 5 8 16 1 21 29 137 41 167 3 8 7 25 9 37 1 12 13 41 26 65 59 108 55
131 -9 48 -21 -27 -41 -49 -44 -50 -4 0 6 34 22 76 43 117 46 151 5 69 -42
-86 -69 -115 -171 -188 -119 -84 -122 -87 -139 -148 -9 -30 -29 -70 -44 -88
l-28 -33 0 38 c-1 68 -14 258 -20 289 -3 17 -7 55 -8 86 -3 53 -2 56 26 68 16
7 43 26 61 42 17 16 34 29 38 29 4 0 9 10 13 23 4 14 9 18 14 10 6 -10 8 125
2 137 -2 3 -4 10 -5 15 -10 50 -33 109 -50 128 -22 24 -72 50 -84 43 -4 -3
-25 1 -47 9 -56 20 -79 18 -113 -10z"/>
<path d="M953 2128 c-4 -7 -6 -21 -5 -30 3 -16 0 -16 -38 1 -70 31 -80 22 -79
-69 2 -164 18 -212 89 -258 40 -26 50 -39 56 -69 8 -45 12 -183 4 -183 -3 0
-12 -19 -21 -43 -16 -39 -31 -147 -44 -307 -3 -36 -8 -87 -10 -115 -2 -27 -5
-131 -6 -230 -2 -181 -22 -321 -62 -447 -15 -48 -14 -58 10 -58 12 0 30 33 37
65 6 26 20 64 39 105 12 25 23 54 24 65 2 11 7 38 13 60 5 22 12 51 14 65 3
14 12 50 20 81 8 31 18 77 21 101 3 25 13 62 21 84 8 21 17 47 20 56 4 10 11
15 17 11 5 -3 7 -1 4 4 -6 9 28 143 44 176 6 13 26 129 33 197 8 75 9 76 50
240 11 43 40 126 46 130 4 3 13 16 20 30 l13 24 -29 -18 c-48 -31 -74 -58
-116 -123 -23 -35 -46 -63 -52 -63 -13 1 -76 106 -76 126 0 8 5 15 10 15 47 6
90 30 90 51 0 10 4 17 9 14 10 -7 7 252 -4 277 -4 9 -17 18 -29 19 -41 3 -51
5 -79 17 -36 14 -44 14 -54 -1z"/>
</g>
</svg>
