<?xml version="1.0" encoding="UTF-8"?>
<svg width="90px" height="90px" viewBox="0 0 90 90" version="1.1" xmlns="http://www.w3.org/2000/svg" xmlns:xlink="http://www.w3.org/1999/xlink">
    <!-- Generator: Sketch 63.1 (92452) - https://sketch.com -->
    <title>hopper-logo</title>
    <desc>Created with Sketch.</desc>
    <defs>
        <path d="M61.740247,22 C63.1661769,22 66.993803,23.8763053 67.6692249,32.3570104 C67.9694281,36.0345349 67.5191233,39.9371765 67.5191233,40.0872781 C67.5191233,40.3874813 67.6692249,40.4624968 68.6449206,41.2880909 C70.6712569,43.014224 75.5495942,47.0669672 74.9491878,50.2191008 C74.498883,52.2455077 72.0221713,53.7465237 67.6692249,54.7221488 C67.2940062,54.7972349 67.2189201,55.022352 67.1439046,55.1724536 C66.993803,55.6978445 67.5942094,56.4483525 69.0201393,58.024384 C70.746343,59.9006893 73.3730857,62.9027213 73.8984766,65.7546517 C74.1235937,66.9554645 73.9734921,67.8560741 73.5982734,68.3063789 C73.0728825,68.9818008 71.9471558,68.9067853 70.8213585,68.2312928 C69.3954286,67.3306832 67.8944126,65.3793624 66.4684121,63.5031277 C65.8680057,62.7526197 65.2675993,61.9270256 64.6671929,61.2516037 C62.0404502,58.0994701 52.2838462,47.8174752 38.6246006,47.8174752 C31.1195206,47.8174752 23.6144406,50.9696088 16.4095638,57.1988605 C16.1843761,57.4239776 15.959259,57.4990637 15.7340713,57.4990637 C15.3588526,57.4990637 15.208751,57.1988605 15.1336649,56.9736728 C14.3831569,54.7972349 16.6346809,48.6430693 25.9409801,41.3631064 C26.2411833,41.0629032 26.5413865,40.8377861 26.466371,40.4624968 C26.3162694,40.1622936 25.9409801,40.0872781 25.4156598,40.0872781 C24.5150502,40.012192 23.0140342,39.9371765 22.1134246,38.6612776 C21.0627134,37.2353477 20.9126118,35.7343317 21.6631198,34.2333157 C22.8639326,31.6815885 26.3912849,29.9553848 28.8679966,29.8803693 C29.0180982,29.8803693 29.1681998,29.9553848 29.2432153,30.0304709 C29.7686062,30.6308773 29.8436217,32.6572136 29.8436217,34.3834173 C29.8436217,34.6085344 29.9187078,34.6836205 29.9937233,34.758636 C30.0688094,34.8337221 30.1438249,34.9087376 30.3690126,34.9087376 C30.5941297,34.9087376 30.969419,34.758636 31.5698254,34.4584328 C32.9957553,33.7830109 35.7726702,32.6572136 39.5252102,32.6572136 C45.6793758,32.6572136 52.0586585,35.8093472 58.4380118,41.9635128 C58.8132305,42.3388021 59.1885198,42.4889037 59.5637385,42.4889037 C60.3047464,42.4889037 60.8994286,41.830404 60.9143652,41.8137331 L61.0647545,41.6633096 L60.989739,41.4381925 C60.7645513,40.7627 59.4136369,38.7363637 56.6367926,34.9087376 C53.7097761,30.9310805 53.0343542,26.8032512 53.6347606,24.7018288 C53.8560621,23.9640413 54.1499261,23.5163668 54.5876178,23.3588054 L54.6103857,23.3509144 L54.7604873,23.3509144 C55.5109953,23.3509144 57.237199,25.0771181 58.0627225,26.4280325 C59.1134337,28.1541656 60.4643481,32.1318933 61.5150593,35.3590424 C62.108318,37.3613254 62.7015767,38.9972014 63.150031,40.0494978 L63.1661769,40.0872781 L63.3162785,40.3874813 L65.2675993,39.7119888 L65.1925838,39.4117856 C64.9673961,37.9107696 64.1418726,35.3590424 63.3162785,32.8073152 C62.5657705,30.4807757 61.8903486,28.3793533 61.6651609,27.1785405 C61.1398406,24.251524 61.1398406,22.6004064 61.5150593,22.0750861 C61.5901454,22 61.6651609,22 61.740247,22 Z" id="path-1"></path>
    </defs>
    <g id="hopper-logo" stroke="none" stroke-width="1" fill="none" fill-rule="evenodd">
        <mask id="mask-2" fill="white">
            <use xlink:href="#path-1"></use>
        </mask>
        <use id="Shape" fill="#000000" xlink:href="#path-1"></use>
    </g>
</svg>